<svg width="150" height="150" viewBox="0 0 150 150" fill="none" xmlns="http://www.w3.org/2000/svg">
<path d="M94.0402 41.0837C83.4974 41.0837 74.95 48.3934 74.95 57.1966C74.95 48.3958 66.4025 41.0837 55.8597 41.0837C45.317 41.0837 36.7695 50.4341 36.7695 61.9685C36.7695 89.924 74.9524 102.593 74.9524 102.593C74.9524 102.593 113.135 89.924 113.135 61.9685C113.135 50.4341 104.588 41.0837 94.045 41.0837H94.0402Z" fill="#E28985" stroke="#C16769" stroke-width="3.40909" stroke-linecap="round" stroke-linejoin="round"/>
<path d="M54.7824 57.1965C46.1752 57.1965 44.5026 60.3555 44.5026 76.5997C44.5026 60.3555 42.8299 57.1965 34.2227 57.1965C42.8299 57.1965 44.5026 54.0375 44.5026 37.7932C44.5026 54.0375 46.1752 57.1965 54.7824 57.1965Z" fill="#FFE39C"/>
<path d="M54.7824 57.1965C46.1752 57.1965 44.5026 60.3555 44.5026 76.5997C44.5026 60.3555 42.8299 57.1965 34.2227 57.1965C42.8299 57.1965 44.5026 54.0375 44.5026 37.7932C44.5026 54.0375 46.1752 57.1965 54.7824 57.1965Z" stroke="#AD652B" stroke-width="2.84091" stroke-linecap="round" stroke-linejoin="round"/>
<path d="M87.9922 65.4859L88.0041 102.12C88.0041 102.23 88.1379 102.283 88.2144 102.204L95.6077 94.4331C95.6699 94.3686 95.7774 94.3901 95.8084 94.4713L101.474 108.84C101.498 108.902 101.57 108.933 101.632 108.909L107.876 106.445C107.938 106.422 107.969 106.35 107.945 106.288L102.279 91.9193C102.246 91.8356 102.31 91.7472 102.399 91.752L113.106 92.3828C113.216 92.39 113.279 92.2586 113.202 92.1773L88.2025 65.3975C88.126 65.3163 87.9922 65.3712 87.9922 65.4811V65.4859Z" fill="#FFE39C" stroke="#AD652B" stroke-width="2.84091" stroke-linecap="round" stroke-linejoin="round"/>
</svg>
